<?xml version="1.0" encoding="utf-8"?>
<!-- Generator: Adobe Illustrator 18.0.0, SVG Export Plug-In . SVG Version: 6.00 Build 0)  -->
<!DOCTYPE svg PUBLIC "-//W3C//DTD SVG 1.1//EN" "http://www.w3.org/Graphics/SVG/1.1/DTD/svg11.dtd">
<svg version="1.1" xmlns="http://www.w3.org/2000/svg" xmlns:xlink="http://www.w3.org/1999/xlink" x="0px" y="0px"
	 viewBox="0 0 1004.9 429.3" enable-background="new 0 0 1004.9 429.3" xml:space="preserve">
<g id="nord" display="none">
	<g display="inline">
		<polygon fill="#F2F2F2" points="-1265.4,-596.3 -1058.1,-1152.3 -928.1,-1238.6 39,-388.2 -1475.4,154.8 		"/>
	</g>
</g>
<g id="lyon" display="none">
</g>
<g id="pompadour" display="none">
</g>
<g id="transition">
	<g>
		<path fill="#FFFFFF" d="M917.3,221.1c0-1.3,0.1-2.9,0.3-4.6c1.6-4.4,4.5-10,2.9-13.1l-1,0c0.5-3.5,0.7-6.6,0.4-8.6
			c-0.9-6.4-6.4-10.3-8.4-14.8c-2-4.5-19.4-0.3-27.2-4.8c-7.8-4.6-5.6-13.1-9.6-18c-3.9-4.9-23.4-9.1-34.7-8.2
			c-11.2,0.9-7,2.3-8.6,4.4c-1.6,2.1-26.1-11.8-29.5-12.1c-3.1-0.3-21.4,14.5-23.9,16.6c0-1.1,0.1-2.4,0.2-3.9
			c1.2-14.3,12.6-35-12.3-37.2c-24.9-2.2-14.1-6.5-14.4-11.2c-0.3-4.7-7.3-32.8-25.7-32.4c-18.4,0.3-18.6-2.3-24.2-7.2
			c-5.6-4.9-13.9-38.2-33.3-37c-19.4,1.2-23.5,16.7-31.1,13c-7.6-3.8-13.9-32.9-32.7-21.6c-6.3,3.8-2.4-4.2-17.8-7
			c-15.5-2.7-34.3-1.3-37.3,10.3c-3,11.6-7.1,21.4-9.8,21c-2.7-0.4-10-8.3-19.4-7.8s-26.7,11.1-27.9,17
			c-1.2,5.9-10.1,15.9-13.3,14.5c-3.2-1.4,1.6-8.5-13.6-6.6c-15.2,2-19.5,0.1-20,9.1c-0.5,9-7.1,0.2-29.8-8.5
			c-22.7-8.6-22.2,11.6-44.7,32.2c-22.5,20.6-16,22.3-28.1,23.1s-10.8-4.6-25.2,1.5c-10.3,4.4-18.6,35.4-23,40.9
			c-14.2,3.2-27.1-17.4-36.6-12.3c-7.2,0.7-17.2,3-23.3,0.6c-9.7-3.9-8.6-14-14-18.9c-5.3-4.9-28.2-6.4-40.9-3.4
			c-12.6,3-7.6,3.8-9.1,6.4c-1.5,2.6-31.7-9-35.6-8.7c-3.9,0.2-24.7,23.3-24.7,23.3c-18.1-8.9-26.3,1.6-26.3,1.6s-12,1.7-13.7,15.4
			s-3.2,23.9-20.3,24.7c-17.1,0.8-30.7,12.1-21.7,20.6c9.1,8.6,20.4-0.7,21.6,15c1.2,15.7-18,25.7,1.3,34.2s24.8,2.7,33.1,21.8
			c0.5,1.3,1.2,1.8,2,1.9c3.4,2.6,11.3,6.1,24.3-0.2c0,0,20.7,23.1,24.6,23.3c3.9,0.2,34.1-11.3,35.6-8.7c1.5,2.6-3.6,3.4,9.1,6.4
			c12.6,3,35.5,1.6,40.9-3.3c5.3-4.9,4.3-15,14-18.9c9.7-3.9,28.7,4,31.8-0.8c3.1-4.8,10-8.3,12.1-15.4c1.4-4.7,2.3-9,3.5-12.7
			c9.4,3.5,8.9,29.2,9,36c0.1,6.9,12.2,16,26.5,22.2c14.4,6.2,13.1,0.8,25.2,1.6c12.1,0.8,5.6,2.5,28.1,23.1
			c22.4,20.6,22,40.9,44.6,32.3c22.7-8.6,29.3-17.4,29.8-8.4c0.5,9,4.8,7.2,20,9.2c15.2,2,10.3-5.2,13.6-6.5
			c3.2-1.4,12.1,8.7,13.3,14.5c1.2,5.9,18.5,16.4,27.9,17c9.5,0.6,16.8-7.4,19.5-7.7c2.7-0.4,6.8,9.4,9.8,21
			c3,11.6,21.8,13.1,37.3,10.4c15.5-2.7,11.5-10.8,17.8-6.9c18.8,11.3,25.1-17.8,32.7-21.5c7.6-3.7,11.7,11.8,31.1,13
			c19.4,1.2,27.8-32,33.4-36.9c5.6-4.9,5.7-7.5,24.2-7.2c18.4,0.4,25.4-27.7,25.7-32.4c0.3-4.7-10.5-9.1,14.4-11.2
			c24.9-2.1,13.5-22.9,12.3-37.2c-0.1-1.5-0.2-2.8-0.2-3.9c2.5,2.1,20.8,16.9,23.9,16.6c3.4-0.3,27.9-14.1,29.5-12.1
			c1.6,2.1-2.6,3.4,8.6,4.4c11.2,1,30.8-3.2,34.7-8.2c3.9-4.9,1.7-13.5,9.6-18c7.8-4.6,25.2-0.3,27.2-4.8c1.8-3.9,6.1-7.4,7.8-12.4
			l1,0c1.1-2,0.3-5-0.9-8C919.1,226.8,917.8,223.7,917.3,221.1z"/>
		<linearGradient id="SVGID_1_" gradientUnits="userSpaceOnUse" x1="648.5027" y1="46.6158" x2="336.5027" y2="356.6158">
			<stop  offset="0" style="stop-color:#FFFFFF;stop-opacity:0"/>
			<stop  offset="0.963" style="stop-color:#E1DFDA;stop-opacity:0.963"/>
			<stop  offset="1" style="stop-color:#E0DED8"/>
		</linearGradient>
		<path fill="url(#SVGID_1_)" d="M917.3,221.1c0-1.3,0.1-2.9,0.3-4.6c1.6-4.4,4.5-10,2.9-13.1l-1,0c0.5-3.5,0.7-6.6,0.4-8.6
			c-0.9-6.4-6.4-10.3-8.4-14.8c-2-4.5-19.4-0.3-27.2-4.8c-7.8-4.6-5.6-13.1-9.6-18c-3.9-4.9-23.4-9.1-34.7-8.2
			c-11.2,0.9-7,2.3-8.6,4.4c-1.6,2.1-26.1-11.8-29.5-12.1c-3.1-0.3-21.4,14.5-23.9,16.6c0-1.1,0.1-2.4,0.2-3.9
			c1.2-14.3,12.6-35-12.3-37.2c-24.9-2.2-14.1-6.5-14.4-11.2c-0.3-4.7-7.3-32.8-25.7-32.4c-18.4,0.3-18.6-2.3-24.2-7.2
			c-5.6-4.9-13.9-38.2-33.3-37c-19.4,1.2-23.5,16.7-31.1,13c-7.6-3.8-13.9-32.9-32.7-21.6c-6.3,3.8-2.4-4.2-17.8-7
			c-15.5-2.7-34.3-1.3-37.3,10.3c-3,11.6-7.1,21.4-9.8,21c-2.7-0.4-10-8.3-19.4-7.8s-26.7,11.1-27.9,17
			c-1.2,5.9-10.1,15.9-13.3,14.5c-3.2-1.4,1.6-8.5-13.6-6.6c-15.2,2-19.5,0.1-20,9.1c-0.5,9-7.1,0.2-29.8-8.5
			c-22.7-8.6-22.2,11.6-44.7,32.2c-22.5,20.6-16,22.3-28.1,23.1s-10.8-4.6-25.2,1.5c-10.3,4.4-18.6,35.4-23,40.9
			c-14.2,3.2-27.1-17.4-36.6-12.3c-7.2,0.7-17.2,3-23.3,0.6c-9.7-3.9-8.6-14-14-18.9c-5.3-4.9-28.2-6.4-40.9-3.4
			c-12.6,3-7.6,3.8-9.1,6.4c-1.5,2.6-31.7-9-35.6-8.7c-3.9,0.2-24.7,23.3-24.7,23.3c-18.1-8.9-26.3,1.6-26.3,1.6s-12,1.7-13.7,15.4
			s-3.2,23.9-20.3,24.7c-17.1,0.8-30.7,12.1-21.7,20.6c9.1,8.6,20.4-0.7,21.6,15c1.2,15.7-18,25.7,1.3,34.2s24.8,2.7,33.1,21.8
			c0.5,1.3,1.2,1.8,2,1.9c3.4,2.6,11.3,6.1,24.3-0.2c0,0,20.7,23.1,24.6,23.3c3.9,0.2,34.1-11.3,35.6-8.7c1.5,2.6-3.6,3.4,9.1,6.4
			c12.6,3,35.5,1.6,40.9-3.3c5.3-4.9,4.3-15,14-18.9c9.7-3.9,28.7,4,31.8-0.8c3.1-4.8,10-8.3,12.1-15.4c1.4-4.7,2.3-9,3.5-12.7
			c9.4,3.5,8.9,29.2,9,36c0.1,6.9,12.2,16,26.5,22.2c14.4,6.2,13.1,0.8,25.2,1.6c12.1,0.8,5.6,2.5,28.1,23.1
			c22.4,20.6,22,40.9,44.6,32.3c22.7-8.6,29.3-17.4,29.8-8.4c0.5,9,4.8,7.2,20,9.2c15.2,2,10.3-5.2,13.6-6.5
			c3.2-1.4,12.1,8.7,13.3,14.5c1.2,5.9,18.5,16.4,27.9,17c9.5,0.6,16.8-7.4,19.5-7.7c2.7-0.4,6.8,9.4,9.8,21
			c3,11.6,21.8,13.1,37.3,10.4c15.5-2.7,11.5-10.8,17.8-6.9c18.8,11.3,25.1-17.8,32.7-21.5c7.6-3.7,11.7,11.8,31.1,13
			c19.4,1.2,27.8-32,33.4-36.9c5.6-4.9,5.7-7.5,24.2-7.2c18.4,0.4,25.4-27.7,25.7-32.4c0.3-4.7-10.5-9.1,14.4-11.2
			c24.9-2.1,13.5-22.9,12.3-37.2c-0.1-1.5-0.2-2.8-0.2-3.9c2.5,2.1,20.8,16.9,23.9,16.6c3.4-0.3,27.9-14.1,29.5-12.1
			c1.6,2.1-2.6,3.4,8.6,4.4c11.2,1,30.8-3.2,34.7-8.2c3.9-4.9,1.7-13.5,9.6-18c7.8-4.6,25.2-0.3,27.2-4.8c1.8-3.9,6.1-7.4,7.8-12.4
			l1,0c1.1-2,0.3-5-0.9-8C919.1,226.8,917.8,223.7,917.3,221.1z"/>
	</g>
</g>
<g id="texture" display="none">
</g>
</svg>
