<?xml version="1.0" encoding="utf-8"?>
<!-- Generator: Adobe Illustrator 18.0.0, SVG Export Plug-In . SVG Version: 6.00 Build 0)  -->
<!DOCTYPE svg PUBLIC "-//W3C//DTD SVG 1.1//EN" "http://www.w3.org/Graphics/SVG/1.1/DTD/svg11.dtd">
<svg version="1.1" xmlns="http://www.w3.org/2000/svg" xmlns:xlink="http://www.w3.org/1999/xlink" x="0px" y="0px"
	 viewBox="0 0 1252.4 442.3" enable-background="new 0 0 1252.4 442.3" xml:space="preserve">
<g id="nord" display="none">
</g>
<g id="lyon" display="none">
</g>
<g id="pompadour" display="none">
</g>
<g id="transition">
	<g>
		<path fill="#FFFFFF" d="M1213.5,242.9c0,0,0.9-65.7-46.7-19s-52,5-59-7.5c-18.1-32.3-38.7-16.3-42.3-20.4
			c-3.5-4.1-9.4,8.8-11.2,9.4c-1.8,0.6-17.6,25.2-27.6-5.3c-10-30.5-41.1-25.2-46.4-24.1c-5.3,1.2-27.6,63.4-28.2,24.1
			c-0.6-39.3-35.2-54-44.6-52.8c-9.4,1.2-26.5,12.7-47.6-7.8s-32.8,12.5-43.4,24.9s-17,5.3-28.1,5.3c-11.1,0-1.2-15.3,0-31.1
			c1.2-15.8-39.6-19.3-40.8-25.4c-1.2-6.2-6.2-36.8-15-43.2s-44,1.2-52.2,1.2c-8.2,0-4.1-1.8-5.3-23.5c-1.2-21.7-38.5-30.1-45-29.5
			c-6.5,0.6-16.1,41.9-16.1,36s-5.3-29.3-43.4-29.3c-38.2,0-38.9,70.4-38.9,70.4c-45.4,2.9-33.8,60.5-33.8,60.5s-21.1-4.7-30.5-4.7
			c-9.4,0-20,21.1-20,21.1c-18.2-27-36.4-12.3-42.3-8.8s-3.5-4.1-3.5-21.1s-22.3-17-35.2-20c-12.9-2.9-5.9-12.3-15.8-27.6
			c-10-15.3-45.3,0-45.3,0s-47.8-17.1-61,15.9c-13.2,33,1.3,17.2-23.8,10.6c-25.1-6.6-46.2,1.3-42.3,21.1c4,19.8,4,43.6-19.8,43.6
			s-51.5-33.8-97.7,14.8s10.6,89.5,44.9,59.1s25.1,14.5,33,35.7c7.9,21.1,11.9,42.3,51.5,29.1c39.6-13.2,52.8,9.2,54.1,26.4
			c1.2,15.6,36.8,21.4,55.9,0.3c9.7,4.3,31.9,12.4,40.5,1.2c11.1-14.5,4.8-24.4,17.9-26.3c13.1-1.9,35.3-0.2,36.6-17.2
			c1.3-17-0.5-24.8,5.1-20.8c5.6,4,22.6,20,42.8-5.6c0,0,8.9,21.9,18.3,22.6c9.4,0.7,30.8-2.4,30.8-2.4s-15.9,21.3,29.1,27.6
			c0,0-4.6,38.6,33.5,41.5c38,2.9,45.1-20.1,45.5-26c0.4-5.9,6.9,36,13.3,37.1c6.4,1.1,49.1,10.5,51.9-11c2.8-21.6-5.9-38.6,2.3-38
			c8.2,0.6,22,34.5,52,5.1c7.8-7.6,16.6-4.2,18.2-10.3c1.6-6.1,5.5,36.5,42.6,12.9c13.4-8.5-8.7-31.9,2.4-31
			c11.1,0.8,18.1-5.7,27.7,7.4s18.7,47,41.3,28.1c22.6-18.9-5.6,29.7,44.5,36.7c9.4,1.3,44.9-10.1,48.5-49.3
			c3.6-39.2,21.1,24.6,26.3,26.1c5.2,1.6,35.8,9.2,48.1-20.5c12.3-29.7,26.2-3.9,27.9-3.2c1.7,0.7,6.6,14,10.4,10.2
			c3.8-3.8,23.1,13.7,43.7-17.1c7.9-11.9-7.2-5.5,59.4-3C1250.7,329.6,1213.5,242.9,1213.5,242.9z"/>
		<linearGradient id="SVGID_1_" gradientUnits="userSpaceOnUse" x1="831.85" y1="46.5073" x2="385.85" y2="522.5073">
			<stop  offset="0" style="stop-color:#FFFFFF;stop-opacity:0"/>
			<stop  offset="2.267802e-02" style="stop-color:#FDFDFD;stop-opacity:2.267802e-02"/>
			<stop  offset="0.6793" style="stop-color:#D3D0C8;stop-opacity:0.6793"/>
			<stop  offset="1" style="stop-color:#C3BEB4"/>
		</linearGradient>
		<path fill="url(#SVGID_1_)" d="M1213.5,242.9c0,0,0.9-65.7-46.7-19s-52,5-59-7.5c-18.1-32.3-38.7-16.3-42.3-20.4
			c-3.5-4.1-9.4,8.8-11.2,9.4c-1.8,0.6-17.6,25.2-27.6-5.3c-10-30.5-41.1-25.2-46.4-24.1c-5.3,1.2-27.6,63.4-28.2,24.1
			c-0.6-39.3-35.2-54-44.6-52.8c-9.4,1.2-26.5,12.7-47.6-7.8s-32.8,12.5-43.4,24.9s-17,5.3-28.1,5.3c-11.1,0-1.2-15.3,0-31.1
			c1.2-15.8-39.6-19.3-40.8-25.4c-1.2-6.2-6.2-36.8-15-43.2s-44,1.2-52.2,1.2c-8.2,0-4.1-1.8-5.3-23.5c-1.2-21.7-38.5-30.1-45-29.5
			c-6.5,0.6-16.1,41.9-16.1,36s-5.3-29.3-43.4-29.3c-38.2,0-38.9,70.4-38.9,70.4c-45.4,2.9-33.8,60.5-33.8,60.5s-21.1-4.7-30.5-4.7
			c-9.4,0-20,21.1-20,21.1c-18.2-27-36.4-12.3-42.3-8.8s-3.5-4.1-3.5-21.1s-22.3-17-35.2-20c-12.9-2.9-5.9-12.3-15.8-27.6
			c-10-15.3-45.3,0-45.3,0s-47.8-17.1-61,15.9c-13.2,33,1.3,17.2-23.8,10.6c-25.1-6.6-46.2,1.3-42.3,21.1c4,19.8,4,43.6-19.8,43.6
			s-51.5-33.8-97.7,14.8s10.6,89.5,44.9,59.1s25.1,14.5,33,35.7c7.9,21.1,11.9,42.3,51.5,29.1c39.6-13.2,52.8,9.2,54.1,26.4
			c1.2,15.6,36.8,21.4,55.9,0.3c9.7,4.3,31.9,12.4,40.5,1.2c11.1-14.5,4.8-24.4,17.9-26.3c13.1-1.9,35.3-0.2,36.6-17.2
			c1.3-17-0.5-24.8,5.1-20.8c5.6,4,22.6,20,42.8-5.6c0,0,8.9,21.9,18.3,22.6c9.4,0.7,30.8-2.4,30.8-2.4s-15.9,21.3,29.1,27.6
			c0,0-4.6,38.6,33.5,41.5c38,2.9,45.1-20.1,45.5-26c0.4-5.9,6.9,36,13.3,37.1c6.4,1.1,49.1,10.5,51.9-11c2.8-21.6-5.9-38.6,2.3-38
			c8.2,0.6,22,34.5,52,5.1c7.8-7.6,16.6-4.2,18.2-10.3c1.6-6.1,5.5,36.5,42.6,12.9c13.4-8.5-8.7-31.9,2.4-31
			c11.1,0.8,18.1-5.7,27.7,7.4s18.7,47,41.3,28.1c22.6-18.9-5.6,29.7,44.5,36.7c9.4,1.3,44.9-10.1,48.5-49.3
			c3.6-39.2,21.1,24.6,26.3,26.1c5.2,1.6,35.8,9.2,48.1-20.5c12.3-29.7,26.2-3.9,27.9-3.2c1.7,0.7,6.6,14,10.4,10.2
			c3.8-3.8,23.1,13.7,43.7-17.1c7.9-11.9-7.2-5.5,59.4-3C1250.7,329.6,1213.5,242.9,1213.5,242.9z"/>
	</g>
</g>
<g id="texture" display="none">
</g>
</svg>
