<svg xmlns="http://www.w3.org/2000/svg" viewBox="0 0 1024 924" enable-background="new 0 0 1024 924"><g><path fill="#42210B" d="M931.1 382.8l-26.6-31.6-111.4-32.9-69 29.6-71.8 29.1-37.9-19.2-79.5-12-51.7 24.4-40.4-13-36.3-5-60.5-80-100.6-52.1-43.6-104.9L80.4 45.9l-78.6 41L0 318.3l-1.1 88.9v75.5l192.6 11 72.3-22.5 105.6-14.6 46.1-16.2 163.6 22.9 71.4-15.6 38.5-5.3 120.3 27.2 86.4-20.7 32.4 32.1 96.8 25.6V401.5z"/><path fill="#381B09" d="M201.9 114.2l-35.3 122.2 24.7 120.9 15.7-71.8h66.9l-35.4-42.3 6.9-24zM346 272.2l3.5 61.2-172.9 74 14.9 86.3 37.3-62.9 38.4 14.3-30.2-41.2 169.5-51.7zM3.7 95.2l45.4 75 31.6 174.5-66.6 46.6zM9.9 481l78.6-72.6 85.5 85.3zM80.4 45l13.2 65.3 52.7 19.7-18.8 40.5 33.9-49.5-51.6-13.3 5.8-39.9zM483.2 370.2l152.4 62.2-56.5 30.9-4-16.3L450 400.9l-89.9 13.6 95.1-22.4L590 440.9zM652.3 377l88 62.3 52.8-121zM415.5 440.4l-61.9-7.8 4 25.6zM904.5 351.2l-54 21.7 29.6 59.7 24.4-32.3 102 57.9-47.5-57.9-27.9-17.5z"/><linearGradient gradientUnits="userSpaceOnUse" x1="514.445" y1="235.782" x2="509.945" y2="495.269"><stop offset="0" stop-color="#fff" stop-opacity="0"/><stop offset=".183" stop-color="#DAD9DC" stop-opacity=".183"/><stop offset=".591" stop-color="#7D7984" stop-opacity=".591"/><stop offset="1" stop-color="#1B1426"/></linearGradient><path fill="url(/travel#SVGID_rock1_)" d="M931.1 383.8l-26.6-31.6-111.4-32.9-69 29.6-71.8 29.1-37.9-19.2-79.5-12-51.7 24.4-40.4-13-36.3-5-60.5-80-100.6-52.1-43.6-104.9L80.4 46.9l-78.6 41 2.3 251-5.2 69.3v75.5l192.6 11 72.3-22.5 105.6-14.6 46.1-16.2 163.6 22.9 71.4-15.6 38.5-5.3 120.3 27.2 86.4-20.7 32.4 32.1 96.8 24.6V401.5z"/><path fill="#0A0202" d="M504.9 469l25.6 2.6 3 2-38.3 22.2-3-2-6.5-12.8z"/><path fill="#280F05" d="M501.9 467l28.6 4.6-38.3 22.2-9.5-14.8z"/><path fill="#0A0202" d="M26 835.9l22.9 3 .9 5.1L39 876.8l-20.3-6-4.8-4z"/><path fill="#280F05" d="M23 832.9l25.9 6.4L36 873.8l-22.1-6.5z"/><path fill="#0D0502" d="M320 473.2l10.2 3-6.9 19.6-2.5-1-2.6-13.8z"/><path fill="#280F05" d="M318 472.2l10.2 3-6.9 19.6-5.1-14.8z"/><path fill="#0A0202" d="M633.3 463.3l48.6-6-9.4 45.4-2.5.6-28.4-11.5-16-18.6z"/><path fill="#280F05" d="M630.3 463.3l51.6-7-12.4 46.4-30.9-10.9-16-18.6z"/><path fill="#0A0202" d="M9.9 493.7l109.1 6.5.8 6L92 547.7l-6.3 18.5L8.3 557l-6.4-4.4z"/><path fill="#280F05" d="M6.9 489.7L119 500.2l-30 43.5-6.3 18.5-80-9.5z"/><path fill="#0A0202" d="M10.3 567l44.6 6.6 3 4v46.6l-48-34.3-3-4z"/><path fill="#280F05" d="M7.3 563l47.6 10.6v46.6l-48-34.3z"/><path fill="#0A0202" d="M100.9 549.2l-10 13.8 2.6 4.9 13.8 7.7 20.7-16.7-1-4z"/><path fill="#280F05" d="M99.9 545.2l-9 17.8 15.4 8.6 20.7-16.7z"/><path fill="#0A0202" d="M137.9 504.2l56-4 3 4 10.6 88.5-106.1 43.5-3-4 44.5-79.5z"/><path fill="#280F05" d="M134.9 500.5h59l10.6 88.3-106.1 43.5 41.5-83.4z"/><path fill="#0A0202" d="M89.4 589.7l12 15.2-20.7 65.3-22.8-6-3-4 20.5-52 4.3-26.4 2.6 2.1z"/><path fill="#280F05" d="M86.4 585.7l12 15.2-20.7 65.3-22.8-6 17.5-56 4.3-26.4z"/><path fill="#0A0202" d="M129 511.6l8.4 38.1-26.4-10.5-3-4 8.9-6.4 9.1-20.5z"/><path fill="#280F05" d="M126 507.6l8.4 38.1-26.4-10.5 5.9-10.4z"/><path fill="#0A0202" d="M24.4 625l-5 45.2 2 2 21 17.5 11-54.5-2-3z"/><path fill="#280F05" d="M22.4 622l-3 47.2 21 17.5 11-54.5z"/><path fill="#0A0202" d="M218.8 501.7l-3-4-9.3 11.5-2 26.5 3 4 19.4-15z"/><path fill="#280F05" d="M215.8 497.7l-12.3 7.5 1 30.5 19.4-15z"/><path fill="#0A0202" d="M88.9 783.8L129.1 679l51.3-27.3 26.1 40.4-77.4 122.5z"/><path fill="#280F05" d="M85.9 779.8L126.1 675l51.3-27.3 26.1 40.4-77.4 122.5z"/><path fill="#0A0202" d="M114.9 651.7l-11.2 22.5 2.7 4.8 56-30.3 5.5-28.6-3-4-26.5 15.1-2 14.5z"/><path fill="#280F05" d="M111.9 647.7l-8.5 27.3 56-30.3 5.5-28.6-29.5 11.1-2 14.5z"/><path fill="#0A0202" d="M68.9 686.7l20.8-9.6 11.7 14-56.5 28.7-3-1.9 16-43.7 14.5-2.2.8 2.2z"/><path fill="#280F05" d="M65.9 682.7L89 672l9.4 16.9-56.5 29 13-47.7 17.5 1.8z"/><path fill="#0A0202" d="M264.2 481l41.3-4.1 3 4-1 61.7-80.6 41.6-3-4 5-40.5 11.5-19z"/><path fill="#280F05" d="M261.2 477l44.3-.1-1 61.7-80.6 41.6 2-44.5 11.5-19z"/><path fill="#0A0202" d="M227.9 694.4l20.7 31.9-44 26.9-3-4 5.9-37.3z"/><path fill="#280F05" d="M224.9 690.4l20.7 31.9-44 26.9 2.9-41.3z"/><path fill="#0A0202" d="M188.9 747.6l14.7 87.6-46 38.4-3-4-6.9-52.1 38.2-74.4z"/><path fill="#280F05" d="M185.9 743.6l14.7 87.6-46 38.4-9.9-56.1z"/><path fill="#0A0202" d="M336.5 480.9l85.3-29.9 67.5 8.3-.7 5.8-57.4 60.1-109.5 7.4-3-4z"/><path fill="#280F05" d="M333.5 476.9l85.3-29.9 70.5 12.3-61.1 61.9-109.5 7.4z"/><path fill="#0A0202" d="M343.8 547.7l-1.4 26.2 3 4 61.6-23-.4-4-10.1-11.2z"/><path fill="#280F05" d="M340.8 543.7l1.6 30.2 64.2-23-13.1-15.2z"/><path fill="#0A0202" d="M305.9 600.5L288 656.3l3 4 50 28.4 58.9-111.6v-5.5z"/><path fill="#280F05" d="M302.9 596.5l-14.8 59.8 50 28.4L400 571.6z"/><path fill="#0A0202" d="M481.4 495.8l19.4 24.1-30.5 12.7-3.9-4-2.1-21.2z"/><path fill="#280F05" d="M478.4 491.8l19.4 24.1-30.5 12.7-6-25.2z"/><path fill="#0A0202" d="M455.3 517.7l5.1 9.6 21 54.5-37.5 58.8-32.2-30.6-5.1-5.9 8.9-37.9 4.1-26.5 28.7 8z"/><path fill="#280F05" d="M455.3 517.7l23.1 60.1-37.5 58.8-34.3-32.5 5.9-41.9 4.1-26.5 28.7 8z"/><path fill="#0A0202" d="M101.4 700.5L109 689l3 4-18.1 47.4-3-4.1 1.1-20.9 6.3-14.9z"/><path fill="#280F05" d="M98.4 696.5L109 689l-18.1 47.4-1.9-25 6.3-14.9z"/><path fill="#0A0202" d="M549.2 470.9l56.7.5 42 41.5-1.1 4.2-94.9 3.6z"/><path fill="#280F05" d="M546.2 466.9l56.7.5 45 45.5-96.5 3.8z"/><path fill="#0A0202" d="M537.9 482.4l6.5 34.5-20 38-43-15.2-3-4 34.5-14-8-23.1 30-20.2z"/><path fill="#280F05" d="M534.9 478.4l6.5 34.5-20 38-43-15.2 31.5-18-8-23.1z"/><path fill="#0A0202" d="M19 692.9l22.9 2.4 3 4L32 733.8l-20-5.9-5.1-4.6z"/><path fill="#280F05" d="M16 688.9l25.9 6.4L29 729.8l-22.1-6.5z"/><path fill="#0A0202" d="M43.4 773l-6 43.2 24 21.5 11-54.5-3-4z"/><path fill="#280F05" d="M40.4 769l-3 47.2 21 17.5 11-54.5z"/><path fill="#0A0202" d="M86.9 833.7L110 823l9.4 16.9-56.5 29-3-4 16-43.7 14.5-2.2.7 5z"/><path fill="#280F05" d="M83.9 829.7L107 819l9.4 16.9-56.5 29 13-47.7 17.5 1.8z"/><path fill="#0A0202" d="M310.2 549.7l-20.3 11.1 5.8 30.3 3 3.5 39.2-22.4-6-21-2-3.8z"/><path fill="#280F05" d="M307.2 545.7l-20.3 11.1 8.8 33.8 39.2-22.4-6-21z"/><path fill="#0A0202" d="M192.9 642.6l-14.5-18.4-3-4 36.9-23.9 22.3 13.6 3 4 17.3 56.3-40.3 21.9-3-4z"/><path fill="#280F05" d="M189.9 638.6l-14.5-18.4 33.9-27.9 25.3 17.6 17.3 56.3-40.3 21.9z"/><path fill="#0A0202" d="M241.7 603.3l24-26.1-3-4-17.1 11.7-19 10.7 5.9 4.8z"/><path fill="#280F05" d="M238.7 599.3l24-26.1-20.1 7.7-16 14.7z"/><path fill="#0A0202" d="M276.4 573.2l7.5 3.9 3 4 4.7 27-23.9 48.1-3-4-17.1-37.5z"/><path fill="#280F05" d="M273.4 569.2l10.5 7.9 4.7 27-23.9 48.1-20.1-41.5z"/><path fill="#0A0202" d="M672.9 528.6l103.5-51.7 3 4-31.2 100.9-73.1-48.6z"/><path fill="#280F05" d="M689.9 452.5l86.5 24.4L746 577.1l-73.1-48.5z"/><path fill="#0A0202" d="M1025.1 535.8c-.3 0 .5-5.7-1.1-6.2-18.7-5.2-102.4-33.8-102.4-33.8L896 577.9l-2 6 3 4 104.8 38.1 23.3-90.2z"/><path fill="#280F05" d="M1023.9 529.6c-3.3-.1-105.4-37.8-105.4-37.8l-25.6 82.1 1 10L998.6 622l25.3-92.4z"/><path fill="#0A0202" d="M595.6 539.9l68.9 5.8 3 4-22.4 41.4z"/><path fill="#280F05" d="M592.6 535.9l40.8-6.1 31.1 15.9-22.4 41.4z"/><path fill="#0A0202" d="M492.9 555.8c2.2.2 22.8 6.8 30.8 10.4 2 .9 3 4 3 4l-28.9 44.5-3-4-5.6-27.4 3.7-27.5z"/><path fill="#280F05" d="M489.9 551.8c2.8.3 33.8 14.4 33.8 14.4l-28.9 44.5-8.6-31.4 3.7-27.5z"/><path fill="#0A0202" d="M893.6 458.2l16 26.3-16 70.4-58.7-53.2 34.4-38.4z"/><path fill="#280F05" d="M890.6 454.2l16 26.3-16 70.4-58.7-53.2 34.4-38.4z"/><path fill="#0A0202" d="M805.9 484.5h3.4l15.6-4.2 3 4-11 48.4-38.4 9.9-3-4 14.1-46.6z"/><path fill="#280F05" d="M802.9 480.5h22l-11 48.3-38.4 9.8 11.1-50.6z"/><path fill="#0A0202" d="M842.2 523.8l16.8 17.9-11.5 36.5-27.6-12.3-3-4 15-55.2z"/><path fill="#280F05" d="M839.2 519.8l16.8 17.9-11.5 36.5-27.6-12.3 12-59.2z"/><path fill="#0A0202" d="M784.8 552.3l17.7-8.8 2.8 6 11.6 43h-52l-3.7-3.9z"/><path fill="#280F05" d="M781.8 548.4l20.7-4.7 11.4 44.8h-52z"/><path fill="#0A0202" d="M871.9 576.7l14 7.5 3 4v26l-32.4 44-3-4-5-48.9 14.1-35.8z"/><path fill="#280F05" d="M868.9 572.7l17 11.5v26l-32.4 44-8-52.9 14.1-35.8z"/><path fill="#0A0202" d="M287.2 673.5l77 39.1 1.2 6.5-53.7 190.5s-94-112-86.8-118.2 38.2-53.9 38.2-53.9l19.3-64.1h4.8z"/><path fill="#280F05" d="M284.2 669.5l80 43.1-55.6 193.1s-94-112-86.8-118.2c7.2-6.2 38.2-53.9 38.2-53.9l19.3-64.1h4.9z"/><path fill="#0A0202" d="M484 538.2"/></g></svg>